<svg id="Ebene_1" data-name="Ebene 1" xmlns="http://www.w3.org/2000/svg" viewBox="0 0 386.34 415.28">
  <defs>
    <style>
      .cls-1, .cls-3, .cls-4 {
        fill: #d7db42;
      }

      .cls-2, .cls-6 {
        fill: #383a41;
      }

      .cls-2, .cls-3, .cls-4, .cls-5 {
        stroke: #fff;
        stroke-miterlimit: 10;
      }

      .cls-2, .cls-4 {
        stroke-width: 7.25px;
      }

      .cls-3, .cls-5 {
        stroke-width: 6.44px;
      }

      .cls-5 {
        fill: none;
      }
    </style>
  </defs>
  <ellipse class="cls-1" cx="388.81" cy="378.23" rx="75.78" ry="218.68" transform="translate(-299.82 -18.61) rotate(-19.56)"/>
  <ellipse class="cls-1" cx="388.81" cy="378.23" rx="218.68" ry="75.78" transform="translate(-293.39 447.4) rotate(-70.44)"/>
  <ellipse class="cls-1" cx="388.81" cy="378.23" rx="75.78" ry="218.68" transform="translate(-328.79 355.24) rotate(-60)"/>
  <ellipse class="cls-1" cx="388.81" cy="378.23" rx="218.68" ry="75.78" transform="translate(-332.66 74.49) rotate(-30)"/>
  <path class="cls-2" d="M290.44,247.22,443.3,299.48a10.55,10.55,0,0,1,6.75,7.19L500.33,491a10.53,10.53,0,0,1-13.56,12.74L333.9,451.45a10.53,10.53,0,0,1-6.75-7.19L276.87,260A10.54,10.54,0,0,1,290.44,247.22Z" transform="translate(-195.64 -170.59)"/>
  <path class="cls-2" d="M495.68,255,449.3,429.73a4.61,4.61,0,0,1-2.62,3L289.43,500.6a4.6,4.6,0,0,1-6.26-5.41L329.55,322.8a4.64,4.64,0,0,1,2.57-3l157.25-70.14A4.59,4.59,0,0,1,495.68,255Z" transform="translate(-195.64 -170.59)"/>
  <path class="cls-3" d="M525.13,385.17l-131.6,70.38a9.57,9.57,0,0,1-9.06,0L252.88,385.17a9.6,9.6,0,0,1,0-16.94l131.59-70.38a9.63,9.63,0,0,1,9.06,0l131.6,70.38A9.6,9.6,0,0,1,525.13,385.17Z" transform="translate(-195.64 -170.59)"/>
  <g>
    <path d="M424.79,214.35v-7.22a.5.5,0,0,1,.54-.55h2.76a2.48,2.48,0,1,1,0,5h-2.28v2.81a.51.51,0,1,1-1,0ZM428,207.5h-2.16v3.13H428a1.57,1.57,0,1,0,0-3.13Z" transform="translate(-195.64 -170.59)"/>
    <path d="M434.41,208.7a2.82,2.82,0,0,1,2.86,3c0,.3-.19.47-.54.47h-4.28a2.11,2.11,0,0,0,2.15,2.06,2.57,2.57,0,0,0,1.6-.57.5.5,0,0,1,.21-.05.37.37,0,0,1,.22.68,3.34,3.34,0,0,1-2.12.7,3.13,3.13,0,0,1-.1-6.25Zm-2,2.75h3.91a1.93,1.93,0,0,0-2-2A2,2,0,0,0,432.45,211.45Z" transform="translate(-195.64 -170.59)"/>
    <path d="M441.73,209.2a.49.49,0,0,1-.5.45,2.2,2.2,0,0,0-1.54.94v3.81a.47.47,0,0,1-.93,0v-5.14a.47.47,0,0,1,.93,0v.55a2.64,2.64,0,0,1,1.33-1,1.25,1.25,0,0,1,.29-.06A.41.41,0,0,1,441.73,209.2Z" transform="translate(-195.64 -170.59)"/>
    <path d="M442.41,213.92a.41.41,0,0,1,.41-.41.43.43,0,0,1,.24.08,2.71,2.71,0,0,0,1.69.61c.91,0,1.41-.4,1.41-1s-.73-.87-1.53-1.06c-1-.24-2.16-.51-2.16-1.74,0-.93.8-1.72,2.22-1.72a3.08,3.08,0,0,1,2,.66.39.39,0,0,1-.23.7.36.36,0,0,1-.22-.09,2.3,2.3,0,0,0-1.52-.51c-.81,0-1.32.37-1.32.9s.68.76,1.46.95c1,.23,2.23.53,2.23,1.84,0,1-.8,1.8-2.35,1.8a3.27,3.27,0,0,1-2.13-.7A.39.39,0,0,1,442.41,213.92Z" transform="translate(-195.64 -170.59)"/>
    <path d="M448.21,211.82a3,3,0,1,1,3,3.13A2.93,2.93,0,0,1,448.21,211.82Zm4.92,0a2,2,0,1,0-4,0,2,2,0,1,0,4,0Z" transform="translate(-195.64 -170.59)"/>
    <path d="M460.55,210.63v3.77a.47.47,0,0,1-.93,0v-3.49c0-1-.53-1.38-1.33-1.38a2.31,2.31,0,0,0-1.76.92v4a.46.46,0,1,1-.92,0v-5.14a.46.46,0,1,1,.92,0v.47a2.88,2.88,0,0,1,2.12-1A1.69,1.69,0,0,1,460.55,210.63Z" transform="translate(-195.64 -170.59)"/>
    <path d="M467,210.71v3.69a.46.46,0,1,1-.92,0v-.27a2.53,2.53,0,0,1-2,.82,2,2,0,0,1-2.09-2,2,2,0,0,1,2.09-2,2.48,2.48,0,0,1,2,.82v-1.08c0-.8-.64-1.26-1.51-1.26a2.2,2.2,0,0,0-1.55.6.57.57,0,0,1-.25.07.38.38,0,0,1-.38-.38.43.43,0,0,1,.16-.31,3.11,3.11,0,0,1,2.15-.78C466,208.7,467,209.27,467,210.71Zm-.92,2.84v-1.12a2,2,0,0,0-1.64-.74,1.31,1.31,0,1,0,0,2.6A2,2,0,0,0,466.12,213.55Z" transform="translate(-195.64 -170.59)"/>
    <path d="M468.89,214.4V207a.46.46,0,1,1,.92,0v7.41a.46.46,0,1,1-.92,0Z" transform="translate(-195.64 -170.59)"/>
    <path d="M471.06,211.82a.4.4,0,0,1,.4-.4h2.25a.4.4,0,0,1,.4.4.41.41,0,0,1-.4.41h-2.25A.41.41,0,0,1,471.06,211.82Z" transform="translate(-195.64 -170.59)"/>
    <path d="M437.37,229.21l-1.43-4.4-1.43,4.4a.6.6,0,0,1-.58.43.62.62,0,0,1-.6-.43l-1.6-5a.77.77,0,0,1,0-.15.46.46,0,0,1,.9-.13l1.37,4.47,1.45-4.43a.53.53,0,0,1,1,0l1.46,4.43,1.37-4.47a.44.44,0,0,1,.44-.32.46.46,0,0,1,.46.45.86.86,0,0,1,0,.17l-1.6,5a.61.61,0,0,1-.59.43A.58.58,0,0,1,437.37,229.21Z" transform="translate(-195.64 -170.59)"/>
    <path d="M444,223.49a2.82,2.82,0,0,1,2.86,3c0,.29-.2.47-.54.47H442a2.09,2.09,0,0,0,2.14,2.06,2.59,2.59,0,0,0,1.61-.57.36.36,0,0,1,.21,0,.37.37,0,0,1,.38.37.4.4,0,0,1-.16.31,3.42,3.42,0,0,1-2.12.7,3.13,3.13,0,0,1-.1-6.25Zm-2,2.75h3.91a1.94,1.94,0,0,0-2-2A2,2,0,0,0,442,226.24Z" transform="translate(-195.64 -170.59)"/>
    <path d="M447.9,228.71a.4.4,0,0,1,.4-.41.43.43,0,0,1,.25.07,2.64,2.64,0,0,0,1.69.62c.91,0,1.41-.41,1.41-1s-.73-.86-1.53-1.06c-1-.23-2.16-.5-2.16-1.74,0-.92.8-1.71,2.22-1.71a3.08,3.08,0,0,1,2,.65.43.43,0,0,1,.16.31.41.41,0,0,1-.39.4.36.36,0,0,1-.22-.09,2.31,2.31,0,0,0-1.52-.52c-.81,0-1.32.37-1.32.9s.68.77,1.45,1c1,.24,2.24.53,2.24,1.85,0,1-.81,1.8-2.35,1.8a3.27,3.27,0,0,1-2.13-.7A.4.4,0,0,1,447.9,228.71Z" transform="translate(-195.64 -170.59)"/>
    <path d="M456.64,223.49a2.82,2.82,0,0,1,2.86,3c0,.29-.2.47-.55.47h-4.27a2.09,2.09,0,0,0,2.14,2.06,2.55,2.55,0,0,0,1.6-.57.41.41,0,0,1,.21,0,.38.38,0,0,1,.39.37.43.43,0,0,1-.16.31,3.45,3.45,0,0,1-2.13.7,3,3,0,0,1-3-3.13A3,3,0,0,1,456.64,223.49Zm-2,2.75h3.9a1.93,1.93,0,0,0-2-2A2,2,0,0,0,454.68,226.24Z" transform="translate(-195.64 -170.59)"/>
    <path d="M465.93,225.41v3.78a.47.47,0,0,1-.93,0V225.7c0-1-.53-1.38-1.33-1.38a2.28,2.28,0,0,0-1.76.92v3.95a.47.47,0,0,1-.93,0V224a.47.47,0,0,1,.93,0v.47a2.91,2.91,0,0,1,2.12-1A1.69,1.69,0,0,1,465.93,225.41Z" transform="translate(-195.64 -170.59)"/>
  </g>
  <g>
    <path d="M511.3,294v-7.23a.49.49,0,0,1,.54-.54h2.76a2.48,2.48,0,1,1,0,5h-2.28V294a.52.52,0,0,1-.51.5A.5.5,0,0,1,511.3,294Zm3.18-6.86h-2.16v3.13h2.16a1.57,1.57,0,1,0,0-3.13Z" transform="translate(-195.64 -170.59)"/>
    <path d="M521.46,288.86c0,.23-.18.42-.5.46a2.18,2.18,0,0,0-1.54.94v3.81a.47.47,0,0,1-.93,0v-5.14a.47.47,0,0,1,.93,0v.55a2.59,2.59,0,0,1,1.33-1,.83.83,0,0,1,.29-.06A.41.41,0,0,1,521.46,288.86Z" transform="translate(-195.64 -170.59)"/>
    <path d="M522.21,291.49a3,3,0,1,1,2.95,3.13A2.92,2.92,0,0,1,522.21,291.49Zm4.92,0a2,2,0,1,0-4,0,2,2,0,1,0,4,0Z" transform="translate(-195.64 -170.59)"/>
    <path d="M528.48,296.87a.42.42,0,0,1-.37-.4.4.4,0,0,1,.36-.41,1.43,1.43,0,0,0,.21,0c.54,0,.93-.28.93-1v-6.12a.46.46,0,0,1,.46-.46.47.47,0,0,1,.46.46v6.12a1.63,1.63,0,0,1-1.75,1.84Zm1-10.18a.62.62,0,1,1,.61.62A.61.61,0,0,1,529.45,286.69Z" transform="translate(-195.64 -170.59)"/>
    <path d="M535,288.37a2.82,2.82,0,0,1,2.86,3c0,.3-.2.47-.54.47H533a2.09,2.09,0,0,0,2.14,2.06,2.55,2.55,0,0,0,1.6-.57.41.41,0,0,1,.21-.05.38.38,0,0,1,.39.37.4.4,0,0,1-.16.31,3.38,3.38,0,0,1-2.12.7,3.13,3.13,0,0,1-.1-6.25Zm-2,2.75h3.91a1.93,1.93,0,0,0-2-2A2,2,0,0,0,533,291.12Z" transform="translate(-195.64 -170.59)"/>
    <path d="M544.25,294.05a.46.46,0,0,1-.46.47.45.45,0,0,1-.36-.14l-2.18-2.57-1,.94v1.32a.47.47,0,0,1-.93,0v-7.41a.47.47,0,0,1,.93,0v5l3.22-3.12a.36.36,0,0,1,.29-.11.42.42,0,0,1,.42.43.49.49,0,0,1-.12.3l-2.13,2,2.21,2.51A.46.46,0,0,1,544.25,294.05Z" transform="translate(-195.64 -170.59)"/>
    <path d="M548.22,294.08a.34.34,0,0,1-.23.34,1.53,1.53,0,0,1-.84.2,1.22,1.22,0,0,1-1.32-1.39v-3.9h-.63a.41.41,0,0,1,0-.81h.63V287.3a.47.47,0,0,1,.93,0v1.22h.85a.41.41,0,1,1,0,.81h-.85V293c0,.45.2.77.6.77s.35-.12.47-.12A.38.38,0,0,1,548.22,294.08Z" transform="translate(-195.64 -170.59)"/>
    <path d="M548.67,291.49a.41.41,0,0,1,.4-.41h2.25a.41.41,0,0,1,0,.82h-2.25A.41.41,0,0,1,548.67,291.49Z" transform="translate(-195.64 -170.59)"/>
    <path d="M504.7,305v3.89a.47.47,0,0,1-.47.46.46.46,0,0,1-.45-.46v-3.63c0-.76-.34-1.24-1.1-1.24a2.09,2.09,0,0,0-1.58.92v4a.46.46,0,0,1-.45.46.47.47,0,0,1-.47-.46v-3.63c0-.76-.32-1.24-1.1-1.24a2.1,2.1,0,0,0-1.57.93v3.94a.46.46,0,1,1-.92,0v-5.14a.46.46,0,0,1,.92,0v.46a2.59,2.59,0,0,1,1.93-1,1.52,1.52,0,0,1,1.6,1.11,2.48,2.48,0,0,1,2-1.11C504.12,303.16,504.7,303.76,504.7,305Z" transform="translate(-195.64 -170.59)"/>
    <path d="M511.19,305.17v3.68a.46.46,0,1,1-.92,0v-.27a2.53,2.53,0,0,1-2,.83,2,2,0,0,1-2.09-2,2,2,0,0,1,2.09-2,2.48,2.48,0,0,1,2,.82v-1.07c0-.81-.64-1.26-1.51-1.26a2.19,2.19,0,0,0-1.55.59.46.46,0,0,1-.25.07.39.39,0,0,1-.38-.38.45.45,0,0,1,.16-.31,3.11,3.11,0,0,1,2.15-.77C510.15,303.16,511.19,303.72,511.19,305.17Zm-.92,2.83v-1.12a2,2,0,0,0-1.64-.74,1.31,1.31,0,1,0,0,2.6A2,2,0,0,0,510.27,308Z" transform="translate(-195.64 -170.59)"/>
    <path d="M518,305.08v3.77a.46.46,0,1,1-.92,0v-3.49c0-1-.53-1.38-1.33-1.38a2.32,2.32,0,0,0-1.77.93v3.94a.46.46,0,1,1-.92,0v-5.14a.46.46,0,0,1,.92,0v.47a2.91,2.91,0,0,1,2.12-1A1.69,1.69,0,0,1,518,305.08Z" transform="translate(-195.64 -170.59)"/>
    <path d="M524.48,305.17v3.68a.47.47,0,0,1-.93,0v-.27a2.53,2.53,0,0,1-2,.83,2,2,0,0,1-2.08-2,2,2,0,0,1,2.08-2,2.48,2.48,0,0,1,2,.82v-1.07c0-.81-.64-1.26-1.5-1.26a2.21,2.21,0,0,0-1.56.59.43.43,0,0,1-.24.07.38.38,0,0,1-.38-.38.41.41,0,0,1,.16-.31,3.06,3.06,0,0,1,2.14-.77C523.43,303.16,524.48,303.72,524.48,305.17Zm-.93,2.83v-1.12a2,2,0,0,0-1.64-.74,1.31,1.31,0,1,0,0,2.6A2,2,0,0,0,523.55,308Z" transform="translate(-195.64 -170.59)"/>
    <path d="M531.55,303.71v5.38c0,2-1.38,2.59-2.84,2.59a3.07,3.07,0,0,1-2.15-.68.43.43,0,0,1-.16-.32.41.41,0,0,1,.4-.41.39.39,0,0,1,.24.09,2.41,2.41,0,0,0,1.67.55,1.7,1.7,0,0,0,1.91-1.79v-.83a2.51,2.51,0,0,1-2,1c-1.56,0-2.65-1.16-2.65-3.08s1.08-3.09,2.65-3.09a2.42,2.42,0,0,1,2,1.06v-.51a.47.47,0,0,1,.93,0Zm-.93,3.84v-2.61a2.2,2.2,0,0,0-1.77-1c-1.2,0-1.91.95-1.91,2.27s.71,2.27,1.91,2.27A2.21,2.21,0,0,0,530.62,307.55Z" transform="translate(-195.64 -170.59)"/>
    <path d="M536,303.16a2.82,2.82,0,0,1,2.86,3c0,.29-.19.46-.54.46H534a2.1,2.1,0,0,0,2.15,2.06,2.56,2.56,0,0,0,1.6-.56A.38.38,0,0,1,538,308a.37.37,0,0,1,.38.37.4.4,0,0,1-.16.31,3.4,3.4,0,0,1-2.12.7,3.13,3.13,0,0,1-.1-6.25Zm-2,2.75h3.91a1.93,1.93,0,0,0-2-2A2,2,0,0,0,534,305.91Z" transform="translate(-195.64 -170.59)"/>
    <path d="M548.44,305v3.89a.47.47,0,0,1-.46.46.47.47,0,0,1-.46-.46v-3.63c0-.76-.33-1.24-1.1-1.24a2.1,2.1,0,0,0-1.58.92v4a.46.46,0,0,1-.45.46.47.47,0,0,1-.47-.46v-3.63c0-.76-.32-1.24-1.1-1.24a2.08,2.08,0,0,0-1.56.93v3.94a.47.47,0,0,1-.93,0v-5.14a.47.47,0,0,1,.93,0v.46a2.55,2.55,0,0,1,1.92-1,1.52,1.52,0,0,1,1.6,1.11,2.51,2.51,0,0,1,2-1.11C547.87,303.16,548.44,303.76,548.44,305Z" transform="translate(-195.64 -170.59)"/>
    <path d="M552.88,303.16a2.82,2.82,0,0,1,2.86,3c0,.29-.2.46-.55.46h-4.27a2.09,2.09,0,0,0,2.14,2.06,2.54,2.54,0,0,0,1.6-.56.41.41,0,0,1,.21-.05.38.38,0,0,1,.39.37.43.43,0,0,1-.16.31,3.45,3.45,0,0,1-2.13.7,3.13,3.13,0,0,1-.09-6.25Zm-2,2.75h3.9a1.93,1.93,0,0,0-2-2A2,2,0,0,0,550.92,305.91Z" transform="translate(-195.64 -170.59)"/>
    <path d="M562.17,305.08v3.77a.47.47,0,0,1-.93,0v-3.49c0-1-.53-1.38-1.33-1.38a2.29,2.29,0,0,0-1.76.93v3.94a.47.47,0,0,1-.93,0v-5.14a.47.47,0,0,1,.93,0v.47a2.91,2.91,0,0,1,2.12-1A1.69,1.69,0,0,1,562.17,305.08Z" transform="translate(-195.64 -170.59)"/>
    <path d="M566.59,308.87a.35.35,0,0,1-.23.34,1.63,1.63,0,0,1-.84.2,1.22,1.22,0,0,1-1.32-1.4v-3.89h-.63a.41.41,0,0,1,0-.82h.63v-1.22a.46.46,0,0,1,.92,0v1.22H566a.41.41,0,1,1,0,.82h-.85v3.7c0,.44.2.76.61.76s.34-.11.47-.11A.38.38,0,0,1,566.59,308.87Z" transform="translate(-195.64 -170.59)"/>
  </g>
  <g>
    <path d="M313.64,214.29l-2.83-7a.32.32,0,0,1-.05-.19.55.55,0,0,1,.55-.55.53.53,0,0,1,.5.35l2.66,6.8,2.67-6.8a.52.52,0,0,1,.5-.35.55.55,0,0,1,.54.55.58.58,0,0,1,0,.19l-2.83,7a.9.9,0,0,1-.84.57A.88.88,0,0,1,313.64,214.29Z" transform="translate(-195.64 -170.59)"/>
    <path d="M321.3,208.7a2.82,2.82,0,0,1,2.86,3c0,.3-.2.47-.54.47h-4.28a2.09,2.09,0,0,0,2.14,2.06,2.59,2.59,0,0,0,1.61-.57.46.46,0,0,1,.21-.05.37.37,0,0,1,.22.68,3.36,3.36,0,0,1-2.12.7,3,3,0,0,1-3-3.13A3,3,0,0,1,321.3,208.7Zm-2,2.75h3.91a1.93,1.93,0,0,0-2-2A2,2,0,0,0,319.34,211.45Z" transform="translate(-195.64 -170.59)"/>
    <path d="M328.62,209.2c0,.22-.19.42-.51.45a2.2,2.2,0,0,0-1.54.94v3.81a.46.46,0,1,1-.92,0v-5.14a.46.46,0,1,1,.92,0v.55a2.68,2.68,0,0,1,1.33-1,1.32,1.32,0,0,1,.3-.06A.42.42,0,0,1,328.62,209.2Z" transform="translate(-195.64 -170.59)"/>
    <path d="M332.29,214.41a.36.36,0,0,1-.23.35,1.63,1.63,0,0,1-.84.19,1.21,1.21,0,0,1-1.32-1.39v-3.89h-.63a.41.41,0,0,1,0-.82h.63v-1.22a.46.46,0,1,1,.92,0v1.22h.85a.41.41,0,1,1,0,.82h-.85v3.69c0,.45.2.77.61.77.26,0,.34-.11.47-.11A.37.37,0,0,1,332.29,214.41Z" transform="translate(-195.64 -170.59)"/>
    <path d="M336.31,209.2c0,.22-.19.42-.51.45a2.2,2.2,0,0,0-1.54.94v3.81a.46.46,0,0,1-.92,0v-5.14a.46.46,0,1,1,.92,0v.55a2.68,2.68,0,0,1,1.33-1,1.32,1.32,0,0,1,.3-.06A.42.42,0,0,1,336.31,209.2Z" transform="translate(-195.64 -170.59)"/>
    <path d="M337.24,207a.63.63,0,1,1,1.25,0,.63.63,0,0,1-1.25,0Zm.16,7.37v-5.14a.47.47,0,0,1,.93,0v5.14a.47.47,0,0,1-.93,0Z" transform="translate(-195.64 -170.59)"/>
    <path d="M342.76,208.7a2.82,2.82,0,0,1,2.86,3c0,.3-.19.47-.54.47H340.8a2.11,2.11,0,0,0,2.15,2.06,2.57,2.57,0,0,0,1.6-.57.5.5,0,0,1,.21-.05.37.37,0,0,1,.22.68,3.34,3.34,0,0,1-2.12.7,3.13,3.13,0,0,1-.1-6.25Zm-2,2.75h3.91a1.93,1.93,0,0,0-2-2A2,2,0,0,0,340.8,211.45Z" transform="translate(-195.64 -170.59)"/>
    <path d="M352.7,211.84c0,1.93-1.1,3.11-2.65,3.11a2.52,2.52,0,0,1-2-1v.48a.47.47,0,0,1-.93,0V207a.47.47,0,0,1,.93,0v2.77a2.44,2.44,0,0,1,2-1.06C351.6,208.7,352.7,209.94,352.7,211.84Zm-1,0c0-1.32-.71-2.31-1.92-2.31a2.19,2.19,0,0,0-1.77,1v2.7a2.17,2.17,0,0,0,1.77.94C351,214.13,351.73,213.15,351.73,211.84Z" transform="translate(-195.64 -170.59)"/>
    <path d="M353.38,214.76a.31.31,0,0,1,0-.13l2.72-8.11a.35.35,0,0,1,.68.11.59.59,0,0,1,0,.13l-2.73,8.11a.35.35,0,0,1-.68-.11Z" transform="translate(-195.64 -170.59)"/>
    <path d="M314.77,229.14v-6.39l-2.72,6.68a.29.29,0,0,1-.29.21.29.29,0,0,1-.28-.21l-2.71-6.68v6.39a.52.52,0,0,1-1,0v-7a.87.87,0,0,1,.87-.86.84.84,0,0,1,.8.54l2.35,5.81,2.37-5.81a.84.84,0,0,1,.8-.54.86.86,0,0,1,.86.86v7a.5.5,0,0,1-.51.5A.52.52,0,0,1,314.77,229.14Z" transform="translate(-195.64 -170.59)"/>
    <path d="M322.32,225.5v3.69a.46.46,0,0,1-.92,0v-.28a2.5,2.5,0,0,1-2,.83,2,2,0,0,1-2.09-2,2,2,0,0,1,2.09-2,2.5,2.5,0,0,1,2,.81v-1.07c0-.8-.64-1.26-1.51-1.26a2.19,2.19,0,0,0-1.55.59.46.46,0,0,1-.25.08.39.39,0,0,1-.38-.39.41.41,0,0,1,.16-.3,3.11,3.11,0,0,1,2.15-.78C321.28,223.49,322.32,224.06,322.32,225.5Zm-.92,2.83v-1.12a2,2,0,0,0-1.64-.74,1.31,1.31,0,1,0,0,2.61A2,2,0,0,0,321.4,228.33Z" transform="translate(-195.64 -170.59)"/>
    <path d="M327.14,224c0,.23-.18.42-.51.46a2.2,2.2,0,0,0-1.54.94v3.81a.46.46,0,0,1-.92,0V224a.46.46,0,0,1,.92,0v.56a2.63,2.63,0,0,1,1.33-1,.93.93,0,0,1,.3-.06A.41.41,0,0,1,327.14,224Z" transform="translate(-195.64 -170.59)"/>
    <path d="M333.17,229.17a.46.46,0,0,1-.46.47.46.46,0,0,1-.36-.15l-2.18-2.56-1,.94v1.32a.47.47,0,0,1-.93,0v-7.41a.47.47,0,0,1,.93,0v5l3.22-3.12a.36.36,0,0,1,.29-.11.42.42,0,0,1,.42.43.49.49,0,0,1-.12.3l-2.13,2,2.22,2.51A.5.5,0,0,1,333.17,229.17Z" transform="translate(-195.64 -170.59)"/>
    <path d="M336.87,223.49a2.82,2.82,0,0,1,2.86,3c0,.29-.19.47-.54.47h-4.28a2.11,2.11,0,0,0,2.15,2.06,2.57,2.57,0,0,0,1.6-.57.38.38,0,0,1,.21,0,.37.37,0,0,1,.38.37.4.4,0,0,1-.16.31,3.4,3.4,0,0,1-2.12.7,3.13,3.13,0,0,1-.1-6.25Zm-2,2.75h3.91a1.93,1.93,0,0,0-2-2A2,2,0,0,0,334.91,226.24Z" transform="translate(-195.64 -170.59)"/>
    <path d="M343.8,229.2a.35.35,0,0,1-.24.34,1.5,1.5,0,0,1-.83.2,1.21,1.21,0,0,1-1.32-1.39v-3.9h-.63a.41.41,0,1,1,0-.81h.63v-1.22a.46.46,0,1,1,.92,0v1.22h.85a.41.41,0,1,1,0,.81h-.85v3.7c0,.44.2.76.61.76.25,0,.34-.11.46-.11A.38.38,0,0,1,343.8,229.2Z" transform="translate(-195.64 -170.59)"/>
    <path d="M344.68,221.81a.63.63,0,1,1,1.25,0,.63.63,0,0,1-1.25,0Zm.16,7.38V224a.47.47,0,0,1,.93,0v5.15a.47.47,0,0,1-.93,0Z" transform="translate(-195.64 -170.59)"/>
    <path d="M352.56,225.41v3.78a.46.46,0,0,1-.92,0V225.7c0-1-.53-1.38-1.34-1.38a2.31,2.31,0,0,0-1.76.92v3.95a.46.46,0,0,1-.92,0V224a.46.46,0,0,1,.92,0v.47a2.91,2.91,0,0,1,2.12-1A1.69,1.69,0,0,1,352.56,225.41Z" transform="translate(-195.64 -170.59)"/>
    <path d="M359.63,224v5.38c0,2-1.38,2.59-2.83,2.59a3.08,3.08,0,0,1-2.16-.68.4.4,0,0,1-.16-.32.41.41,0,0,1,.41-.41.39.39,0,0,1,.23.09,2.42,2.42,0,0,0,1.68.56,1.71,1.71,0,0,0,1.91-1.79v-.84a2.53,2.53,0,0,1-2,1c-1.55,0-2.65-1.16-2.65-3.09s1.09-3.09,2.65-3.09a2.44,2.44,0,0,1,2,1.06V224a.46.46,0,0,1,.92,0Zm-.92,3.84v-2.6a2.19,2.19,0,0,0-1.78-1c-1.19,0-1.91,1-1.91,2.26s.72,2.27,1.91,2.27A2.2,2.2,0,0,0,358.71,227.88Z" transform="translate(-195.64 -170.59)"/>
  </g>
  <g>
    <path d="M519.26,447.46a.48.48,0,0,1,.12.31.47.47,0,0,1-.81.32l-.52-.55a4.18,4.18,0,0,1-2.23.61,4.25,4.25,0,1,1,4.08-4.25,4.28,4.28,0,0,1-1.13,3Zm-1.87-.64-.88-.95a.48.48,0,0,1-.12-.31.45.45,0,0,1,.47-.46.44.44,0,0,1,.34.14l.89,1a3.66,3.66,0,0,0,.75-2.31,3,3,0,1,0-3,3.34A3,3,0,0,0,517.39,446.82Z" transform="translate(-195.64 -170.59)"/>
    <path d="M526.41,442.46v5.14a.47.47,0,0,1-.93,0v-.42a2.93,2.93,0,0,1-2.12,1,1.68,1.68,0,0,1-1.9-1.9v-3.79a.47.47,0,0,1,.93,0V446c0,1,.53,1.36,1.33,1.36a2.26,2.26,0,0,0,1.76-.9v-4a.47.47,0,0,1,.93,0Z" transform="translate(-195.64 -170.59)"/>
    <path d="M532.9,443.91v3.69a.46.46,0,0,1-.47.45.45.45,0,0,1-.45-.45v-.27a2.53,2.53,0,0,1-2,.82,2,2,0,0,1-2.08-2,2,2,0,0,1,2.08-2,2.52,2.52,0,0,1,2,.81V444c0-.8-.65-1.26-1.51-1.26a2.2,2.2,0,0,0-1.55.6.57.57,0,0,1-.25.07.38.38,0,0,1-.22-.69,3.07,3.07,0,0,1,2.14-.78C531.85,441.9,532.9,442.47,532.9,443.91Zm-.92,2.84v-1.12a2,2,0,0,0-1.64-.74,1.31,1.31,0,1,0,0,2.6A2,2,0,0,0,532,446.75Z" transform="translate(-195.64 -170.59)"/>
    <path d="M534.75,447.6v-7.41a.46.46,0,1,1,.92,0v7.41a.46.46,0,0,1-.92,0Z" transform="translate(-195.64 -170.59)"/>
    <path d="M537.36,440.23a.62.62,0,1,1,1.24,0,.62.62,0,0,1-1.24,0Zm.16,7.37v-5.14a.46.46,0,1,1,.92,0v5.14a.46.46,0,0,1-.92,0Z" transform="translate(-195.64 -170.59)"/>
    <path d="M542.87,447.61a.37.37,0,0,1-.24.35,1.63,1.63,0,0,1-.84.19,1.22,1.22,0,0,1-1.32-1.39v-3.9h-.62a.4.4,0,0,1-.41-.4.41.41,0,0,1,.41-.41h.62v-1.22a.47.47,0,0,1,.93,0v1.22h.85a.43.43,0,0,1,.42.41.42.42,0,0,1-.42.4h-.85v3.7c0,.45.2.77.6.77s.35-.11.47-.11A.38.38,0,0,1,542.87,447.61Z" transform="translate(-195.64 -170.59)"/>
    <path d="M548.56,443.91v3.69a.46.46,0,0,1-.47.45.45.45,0,0,1-.45-.45v-.27a2.53,2.53,0,0,1-2,.82,2,2,0,0,1-2.08-2,2,2,0,0,1,2.08-2,2.52,2.52,0,0,1,2,.81V444c0-.8-.65-1.26-1.51-1.26a2.2,2.2,0,0,0-1.55.6.57.57,0,0,1-.25.07.38.38,0,0,1-.22-.69,3.07,3.07,0,0,1,2.14-.78C547.51,441.9,548.56,442.47,548.56,443.91Zm-4.13-3.71a.58.58,0,0,1,.57-.57.58.58,0,0,1,0,1.15A.58.58,0,0,1,544.43,440.2Zm3.21,6.55v-1.12a2,2,0,0,0-1.64-.74,1.31,1.31,0,1,0,0,2.6A2,2,0,0,0,547.64,446.75ZM547,440.2a.58.58,0,1,1,.58.58A.58.58,0,0,1,547,440.2Z" transform="translate(-195.64 -170.59)"/>
    <path d="M553,447.61a.36.36,0,0,1-.23.35,1.63,1.63,0,0,1-.84.19,1.21,1.21,0,0,1-1.32-1.39v-3.9H550a.41.41,0,0,1-.41-.4.42.42,0,0,1,.41-.41h.63v-1.22a.46.46,0,1,1,.92,0v1.22h.86a.43.43,0,0,1,.42.41.42.42,0,0,1-.42.4h-.86v3.7c0,.45.2.77.61.77s.34-.11.47-.11A.37.37,0,0,1,553,447.61Z" transform="translate(-195.64 -170.59)"/>
    <path d="M553.61,447.12a.41.41,0,0,1,.41-.41.51.51,0,0,1,.24.07,2.66,2.66,0,0,0,1.69.62c.91,0,1.41-.41,1.41-1s-.73-.87-1.53-1.07c-1-.23-2.16-.5-2.16-1.73,0-.93.8-1.72,2.22-1.72a3,3,0,0,1,2,.66.39.39,0,0,1,.16.3.41.41,0,0,1-.39.4.36.36,0,0,1-.22-.09,2.31,2.31,0,0,0-1.52-.52c-.81,0-1.32.37-1.32.9s.68.77,1.46.95c1,.24,2.23.53,2.23,1.85,0,1-.8,1.8-2.35,1.8a3.27,3.27,0,0,1-2.13-.7A.39.39,0,0,1,553.61,447.12Z" transform="translate(-195.64 -170.59)"/>
    <path d="M559.15,445a.42.42,0,0,1,.41-.41h2.24a.41.41,0,1,1,0,.82h-2.24A.42.42,0,0,1,559.15,445Z" transform="translate(-195.64 -170.59)"/>
    <path d="M510.33,458.49v3.89a.47.47,0,0,1-.46.46.47.47,0,0,1-.46-.46v-3.63c0-.75-.33-1.24-1.1-1.24a2.1,2.1,0,0,0-1.58.92v3.95a.46.46,0,0,1-.45.46.47.47,0,0,1-.47-.46v-3.63c0-.75-.32-1.24-1.1-1.24a2.08,2.08,0,0,0-1.56.93v3.94a.47.47,0,0,1-.93,0v-5.14a.47.47,0,0,1,.93,0v.46a2.55,2.55,0,0,1,1.92-1,1.52,1.52,0,0,1,1.6,1.11,2.52,2.52,0,0,1,2-1.11C509.75,456.69,510.33,457.29,510.33,458.49Z" transform="translate(-195.64 -170.59)"/>
    <path d="M516.83,458.7v3.68a.47.47,0,0,1-.93,0v-.27a2.5,2.5,0,0,1-2,.83,2,2,0,0,1-2.09-2,2,2,0,0,1,2.09-2,2.5,2.5,0,0,1,2,.81v-1.07c0-.8-.64-1.26-1.5-1.26a2.19,2.19,0,0,0-1.56.59.43.43,0,0,1-.24.08.4.4,0,0,1-.39-.39.39.39,0,0,1,.17-.3,3.07,3.07,0,0,1,2.14-.78C515.78,456.69,516.83,457.26,516.83,458.7Zm-.93,2.83v-1.12a2,2,0,0,0-1.64-.74,1.31,1.31,0,1,0,0,2.6A2,2,0,0,0,515.9,461.53Z" transform="translate(-195.64 -170.59)"/>
    <path d="M523.62,458.61v3.77a.47.47,0,0,1-.93,0V458.9c0-1-.53-1.39-1.33-1.39a2.29,2.29,0,0,0-1.76.93v3.94a.47.47,0,0,1-.93,0v-5.14a.47.47,0,0,1,.93,0v.47a2.87,2.87,0,0,1,2.12-1A1.69,1.69,0,0,1,523.62,458.61Z" transform="translate(-195.64 -170.59)"/>
    <path d="M530.11,458.7v3.68a.47.47,0,0,1-.93,0v-.27a2.5,2.5,0,0,1-2,.83,2,2,0,0,1-2.08-2,2,2,0,0,1,2.08-2,2.5,2.5,0,0,1,2,.81v-1.07c0-.8-.64-1.26-1.5-1.26a2.17,2.17,0,0,0-1.55.59.49.49,0,0,1-.25.08.39.39,0,0,1-.38-.39.38.38,0,0,1,.16-.3,3.07,3.07,0,0,1,2.14-.78C529.06,456.69,530.11,457.26,530.11,458.7Zm-.93,2.83v-1.12a2,2,0,0,0-1.64-.74,1.31,1.31,0,1,0,0,2.6A2,2,0,0,0,529.18,461.53Z" transform="translate(-195.64 -170.59)"/>
    <path d="M537.18,457.24v5.38c0,2-1.38,2.59-2.83,2.59a3.08,3.08,0,0,1-2.16-.68.42.42,0,0,1-.16-.32.41.41,0,0,1,.4-.41.39.39,0,0,1,.24.09,2.42,2.42,0,0,0,1.68.55,1.7,1.7,0,0,0,1.91-1.78v-.84a2.53,2.53,0,0,1-2,1.05c-1.55,0-2.65-1.16-2.65-3.09s1.08-3.09,2.65-3.09a2.44,2.44,0,0,1,2,1.06v-.51a.46.46,0,0,1,.92,0Zm-.92,3.84v-2.6a2.2,2.2,0,0,0-1.78-1c-1.19,0-1.91.95-1.91,2.27s.72,2.27,1.91,2.27A2.2,2.2,0,0,0,536.26,461.08Z" transform="translate(-195.64 -170.59)"/>
    <path d="M541.62,456.69a2.82,2.82,0,0,1,2.86,3c0,.29-.2.47-.55.47h-4.27a2.09,2.09,0,0,0,2.14,2.05,2.56,2.56,0,0,0,1.6-.56.38.38,0,0,1,.21-.05.38.38,0,0,1,.39.37.41.41,0,0,1-.17.31,3.4,3.4,0,0,1-2.12.7,3.13,3.13,0,0,1-.09-6.25Zm-2,2.75h3.9a1.93,1.93,0,0,0-2-2A2,2,0,0,0,539.66,459.44Z" transform="translate(-195.64 -170.59)"/>
    <path d="M554.08,458.49v3.89a.48.48,0,0,1-.47.46.47.47,0,0,1-.46-.46v-3.63c0-.75-.33-1.24-1.1-1.24a2.07,2.07,0,0,0-1.57.92v3.95a.47.47,0,0,1-.46.46.47.47,0,0,1-.47-.46v-3.63c0-.75-.32-1.24-1.1-1.24a2.08,2.08,0,0,0-1.56.93v3.94a.47.47,0,0,1-.93,0v-5.14a.47.47,0,0,1,.93,0v.46a2.55,2.55,0,0,1,1.92-1,1.52,1.52,0,0,1,1.6,1.11,2.53,2.53,0,0,1,2-1.11C553.5,456.69,554.08,457.29,554.08,458.49Z" transform="translate(-195.64 -170.59)"/>
    <path d="M558.51,456.69a2.82,2.82,0,0,1,2.86,3c0,.29-.2.47-.54.47h-4.28a2.09,2.09,0,0,0,2.14,2.05,2.58,2.58,0,0,0,1.61-.56.35.35,0,0,1,.2-.05.38.38,0,0,1,.39.37.4.4,0,0,1-.16.31,3.42,3.42,0,0,1-2.12.7,3.13,3.13,0,0,1-.1-6.25Zm-2,2.75h3.91a1.94,1.94,0,0,0-2-2A2,2,0,0,0,556.55,459.44Z" transform="translate(-195.64 -170.59)"/>
    <path d="M567.8,458.61v3.77a.47.47,0,0,1-.47.46.46.46,0,0,1-.45-.46V458.9c0-1-.53-1.39-1.34-1.39a2.32,2.32,0,0,0-1.76.93v3.94a.46.46,0,1,1-.92,0v-5.14a.46.46,0,0,1,.92,0v.47a2.91,2.91,0,0,1,2.12-1A1.69,1.69,0,0,1,567.8,458.61Z" transform="translate(-195.64 -170.59)"/>
    <path d="M572.22,462.4a.34.34,0,0,1-.23.34,1.53,1.53,0,0,1-.84.2,1.22,1.22,0,0,1-1.32-1.39v-3.9h-.63a.41.41,0,1,1,0-.81h.63v-1.22a.46.46,0,1,1,.92,0v1.22h.86a.41.41,0,1,1,0,.81h-.86v3.7c0,.44.2.76.61.76s.34-.11.47-.11A.38.38,0,0,1,572.22,462.4Z" transform="translate(-195.64 -170.59)"/>
  </g>
  <g>
    <path d="M420.88,534.87a.5.5,0,0,1-.5.46.52.52,0,0,1-.43-.21l-2.14-3.1H416v2.81a.51.51,0,0,1-1,0V527.6a.49.49,0,0,1,.54-.54h2.77a2.39,2.39,0,0,1,2.57,2.48,2.26,2.26,0,0,1-2,2.37l1.89,2.63A.56.56,0,0,1,420.88,534.87ZM416,531.12h2.16a1.58,1.58,0,1,0,0-3.15H416Z" transform="translate(-195.64 -170.59)"/>
    <path d="M424.65,529.18a2.82,2.82,0,0,1,2.86,3c0,.3-.2.47-.55.47h-4.28a2.11,2.11,0,0,0,2.15,2.06,2.57,2.57,0,0,0,1.6-.57.38.38,0,0,1,.21-.05.37.37,0,0,1,.38.37.38.38,0,0,1-.16.31,3.34,3.34,0,0,1-2.12.7,3.13,3.13,0,0,1-.09-6.25Zm-2,2.75h3.91a1.92,1.92,0,0,0-2-2A2,2,0,0,0,422.68,531.93Z" transform="translate(-195.64 -170.59)"/>
    <path d="M431.62,529.18a2.55,2.55,0,0,1,1.91.74.5.5,0,0,1,.14.31.42.42,0,0,1-.42.42.39.39,0,0,1-.27-.11,1.76,1.76,0,0,0-1.31-.53,2.31,2.31,0,0,0,0,4.6,1.69,1.69,0,0,0,1.29-.53.4.4,0,0,1,.29-.12.42.42,0,0,1,.42.42.43.43,0,0,1-.14.31,2.55,2.55,0,0,1-1.91.74,3.13,3.13,0,0,1,0-6.25Z" transform="translate(-195.64 -170.59)"/>
    <path d="M439.12,534.88v-3.52c0-1-.54-1.35-1.34-1.35a2.31,2.31,0,0,0-1.76.92v4a.47.47,0,0,1-.93,0v-7.41a.47.47,0,0,1,.93,0v2.72a3,3,0,0,1,2.13-1,1.68,1.68,0,0,1,1.9,1.9v3.8a.47.47,0,0,1-.93,0Z" transform="translate(-195.64 -170.59)"/>
    <path d="M446.84,531.1v3.78a.47.47,0,0,1-.93,0v-3.49c0-1-.53-1.38-1.33-1.38a2.28,2.28,0,0,0-1.76.92v4a.47.47,0,0,1-.93,0v-5.14a.47.47,0,0,1,.93,0v.47a2.88,2.88,0,0,1,2.12-1A1.69,1.69,0,0,1,446.84,531.1Z" transform="translate(-195.64 -170.59)"/>
    <path d="M453.63,529.74v5.14a.47.47,0,0,1-.93,0v-.42a2.93,2.93,0,0,1-2.12,1,1.68,1.68,0,0,1-1.9-1.9v-3.79a.47.47,0,0,1,.93,0v3.51c0,1,.53,1.36,1.33,1.36a2.26,2.26,0,0,0,1.76-.9v-4a.47.47,0,0,1,.93,0Z" transform="translate(-195.64 -170.59)"/>
    <path d="M460.42,531.1v3.78a.47.47,0,0,1-.93,0v-3.49c0-1-.53-1.38-1.33-1.38a2.28,2.28,0,0,0-1.76.92v4a.47.47,0,0,1-.93,0v-5.14a.47.47,0,0,1,.93,0v.47a2.85,2.85,0,0,1,2.12-1A1.69,1.69,0,0,1,460.42,531.1Z" transform="translate(-195.64 -170.59)"/>
    <path d="M467.49,529.74v5.37c0,2-1.38,2.59-2.84,2.59a3.07,3.07,0,0,1-2.15-.68.41.41,0,0,1-.17-.32.4.4,0,0,1,.65-.32,2.35,2.35,0,0,0,1.67.56,1.7,1.7,0,0,0,1.91-1.79v-.84a2.52,2.52,0,0,1-2,1.05c-1.56,0-2.65-1.16-2.65-3.08s1.08-3.1,2.65-3.1a2.45,2.45,0,0,1,2,1.06v-.5a.47.47,0,0,1,.93,0Zm-.93,3.83V531a2.18,2.18,0,0,0-1.77-1c-1.2,0-1.91,1-1.91,2.27s.71,2.26,1.91,2.26A2.18,2.18,0,0,0,466.56,533.57Z" transform="translate(-195.64 -170.59)"/>
    <path d="M468.91,534.4a.41.41,0,0,1,.41-.41.45.45,0,0,1,.25.07,2.64,2.64,0,0,0,1.69.62c.91,0,1.4-.41,1.4-1s-.72-.86-1.53-1.06c-1-.23-2.15-.5-2.15-1.74,0-.92.8-1.71,2.22-1.71a3.08,3.08,0,0,1,2,.65.47.47,0,0,1,.16.31.41.41,0,0,1-.4.4.39.39,0,0,1-.22-.09,2.3,2.3,0,0,0-1.51-.52c-.82,0-1.32.37-1.32.9s.67.77,1.45.95c1,.24,2.23.53,2.23,1.85,0,1-.8,1.8-2.34,1.8a3.25,3.25,0,0,1-2.13-.7A.4.4,0,0,1,468.91,534.4Z" transform="translate(-195.64 -170.59)"/>
    <path d="M474.46,532.3a.41.41,0,0,1,.41-.41h2.24a.41.41,0,0,1,0,.82h-2.24A.41.41,0,0,1,474.46,532.3Z" transform="translate(-195.64 -170.59)"/>
    <path d="M434.16,549.69l-1.43-4.4-1.43,4.4a.61.61,0,0,1-1.17,0l-1.61-5a.77.77,0,0,1,0-.15.45.45,0,0,1,.46-.45.44.44,0,0,1,.44.32l1.37,4.47,1.45-4.44a.52.52,0,0,1,.51-.35.51.51,0,0,1,.5.35l1.46,4.44,1.37-4.47a.44.44,0,0,1,.44-.32.46.46,0,0,1,.46.45.38.38,0,0,1,0,.16l-1.6,5a.6.6,0,0,1-.59.43A.59.59,0,0,1,434.16,549.69Z" transform="translate(-195.64 -170.59)"/>
    <path d="M440.76,544a2.82,2.82,0,0,1,2.86,3c0,.29-.2.46-.54.46H438.8a2.1,2.1,0,0,0,2.15,2.06,2.56,2.56,0,0,0,1.6-.56.38.38,0,0,1,.21,0,.37.37,0,0,1,.38.37.4.4,0,0,1-.16.31,3.4,3.4,0,0,1-2.12.7,3.13,3.13,0,0,1-.1-6.25Zm-2,2.75h3.91a1.93,1.93,0,0,0-2-2A2,2,0,0,0,438.8,546.72Z" transform="translate(-195.64 -170.59)"/>
    <path d="M444.69,549.18a.41.41,0,0,1,.41-.4.42.42,0,0,1,.24.07,2.69,2.69,0,0,0,1.69.62c.92,0,1.41-.41,1.41-1s-.73-.86-1.53-1.06c-1-.23-2.16-.51-2.16-1.74,0-.92.8-1.71,2.22-1.71a3.08,3.08,0,0,1,2,.65.43.43,0,0,1,.16.31.4.4,0,0,1-.39.39.37.37,0,0,1-.22-.08,2.31,2.31,0,0,0-1.52-.52c-.81,0-1.32.37-1.32.9s.68.76,1.46,1c1,.23,2.23.53,2.23,1.85,0,1-.8,1.8-2.34,1.8a3.3,3.3,0,0,1-2.14-.7A.41.41,0,0,1,444.69,549.18Z" transform="translate(-195.64 -170.59)"/>
    <path d="M453.43,544a2.82,2.82,0,0,1,2.86,3c0,.29-.2.46-.54.46h-4.28a2.09,2.09,0,0,0,2.14,2.06,2.58,2.58,0,0,0,1.61-.56.36.36,0,0,1,.21,0,.37.37,0,0,1,.38.37.4.4,0,0,1-.16.31,3.42,3.42,0,0,1-2.12.7,3.13,3.13,0,0,1-.1-6.25Zm-2,2.75h3.91a1.94,1.94,0,0,0-2-2A2,2,0,0,0,451.47,546.72Z" transform="translate(-195.64 -170.59)"/>
    <path d="M462.72,545.89v3.77a.46.46,0,1,1-.92,0v-3.49c0-1-.53-1.38-1.34-1.38a2.32,2.32,0,0,0-1.76.93v3.94a.46.46,0,1,1-.92,0v-5.14a.46.46,0,0,1,.92,0V545a2.91,2.91,0,0,1,2.12-1A1.69,1.69,0,0,1,462.72,545.89Z" transform="translate(-195.64 -170.59)"/>
  </g>
  <path class="cls-4" d="M395,218.79l83.14,155.46a8.87,8.87,0,0,1,0,8.37L394.34,539.38a6,6,0,0,1-10.65,0L299.85,382.62a8.87,8.87,0,0,1,0-8.37L383,218.79A6.84,6.84,0,0,1,395,218.79Z" transform="translate(-195.64 -170.59)"/>
  <path class="cls-5" d="M522.46,386.6,396.32,454.06a15.48,15.48,0,0,1-14.63,0L253.92,385.73a10.24,10.24,0,0,1,0-18.05l129.23-69.12a12.38,12.38,0,0,1,11.7,0L522.46,366.8A11.23,11.23,0,0,1,522.46,386.6Z" transform="translate(-195.64 -170.59)"/>
  <g>
    <path class="cls-6" d="M321.83,380.92V369.1a1.54,1.54,0,0,1,1.71-1.71h7.84a1.4,1.4,0,1,1,0,2.79h-6.3v3.32h6.14a1.4,1.4,0,1,1,0,2.8h-6.14v3.55h6.3a1.41,1.41,0,1,1,0,2.81h-7.84A1.56,1.56,0,0,1,321.83,380.92Z" transform="translate(-195.64 -170.59)"/>
    <path class="cls-6" d="M347.14,380.26a1.6,1.6,0,0,1,.32,1,1.58,1.58,0,0,1-1.56,1.53,1.66,1.66,0,0,1-1.35-.68l-3.44-4.95h-2.68v4a1.62,1.62,0,0,1-1.6,1.62,1.65,1.65,0,0,1-1.65-1.62V369.1a1.55,1.55,0,0,1,1.72-1.71h5.43a4.76,4.76,0,0,1,5.13,4.92,4.44,4.44,0,0,1-2.91,4.42Zm-8.71-5.86h3.42a2.12,2.12,0,1,0,0-4.22h-3.42Z" transform="translate(-195.64 -170.59)"/>
    <path class="cls-6" d="M349.91,381.2V369.1a1.55,1.55,0,0,1,1.72-1.71h5.43a4.91,4.91,0,1,1,0,9.8h-3.9v4a1.62,1.62,0,0,1-1.6,1.62A1.65,1.65,0,0,1,349.91,381.2Zm6.71-11h-3.46v4.22h3.46a2.11,2.11,0,1,0,0-4.22Z" transform="translate(-195.64 -170.59)"/>
    <path class="cls-6" d="M369.06,377.12a1.25,1.25,0,0,1,1.24-1.24h3.39a1.24,1.24,0,0,1,0,2.48H370.3A1.25,1.25,0,0,1,369.06,377.12Z" transform="translate(-195.64 -170.59)"/>
    <path class="cls-6" d="M382.17,380.14a1.53,1.53,0,0,1,1.51-1.53,1.47,1.47,0,0,1,.87.27,6.52,6.52,0,0,0,3.85,1.22c1.78,0,2.65-.85,2.65-1.72,0-1.15-1.33-1.53-3.09-1.95-2.5-.57-5.7-1.26-5.7-4.67,0-2.54,2.2-4.6,6-4.6a9.14,9.14,0,0,1,4.74,1.26,1.46,1.46,0,0,1,.76,1.28,1.52,1.52,0,0,1-1.49,1.51,1.41,1.41,0,0,1-.78-.23,7.15,7.15,0,0,0-3.46-1c-1.69,0-2.47.64-2.47,1.55s1.28,1.36,3,1.77c2.52.57,5.73,1.33,5.73,4.72,0,2.79-2,4.9-6.12,4.9a9.1,9.1,0,0,1-5.38-1.54A1.5,1.5,0,0,1,382.17,380.14Z" transform="translate(-195.64 -170.59)"/>
    <path class="cls-6" d="M397.1,384.59s.09,0,.14,0c.75,0,1.24-.2,1.51-.8l.41-.94-3.8-9.41a1.31,1.31,0,0,1-.09-.53,1.42,1.42,0,0,1,1.42-1.44,1.38,1.38,0,0,1,1.33.89l2.65,7.06,2.64-7.06a1.45,1.45,0,1,1,2.68,1.1l-4.49,11a4,4,0,0,1-4,2.68,1.83,1.83,0,0,1-.32,0,1.3,1.3,0,0,1-1.31-1.31A1.24,1.24,0,0,1,397.1,384.59Z" transform="translate(-195.64 -170.59)"/>
    <path class="cls-6" d="M407.3,380.81a1.22,1.22,0,0,1,1.21-1.22,1.42,1.42,0,0,1,.62.16,6,6,0,0,0,3,.94c1.26,0,1.85-.43,1.85-1.12s-1-1.05-2.22-1.3c-1.9-.37-4.35-.83-4.35-3.46,0-1.86,1.63-3.48,4.53-3.48a6.87,6.87,0,0,1,3.65,1,1.09,1.09,0,0,1,.57,1A1.13,1.13,0,0,1,415,374.4a1.07,1.07,0,0,1-.55-.14,4.79,4.79,0,0,0-2.52-.71c-1.06,0-1.74.39-1.74,1s.87.94,2.1,1.19c1.91.37,4.45.87,4.45,3.62,0,2-1.72,3.55-4.79,3.55a7.87,7.87,0,0,1-4.08-1.08A1.23,1.23,0,0,1,407.3,380.81Z" transform="translate(-195.64 -170.59)"/>
    <path class="cls-6" d="M425,381.56a1.17,1.17,0,0,1-.87,1.15,4.48,4.48,0,0,1-1.51.23c-2,0-3.14-1.06-3.14-3v-5.77h-.71a1.27,1.27,0,1,1,0-2.54h.71v-1.72a1.47,1.47,0,0,1,2.94,0v1.72h1.14a1.27,1.27,0,0,1,0,2.54h-1.14v5c0,.68.34,1.21,1,1.21.21,0,.34-.05.48-.05A1.19,1.19,0,0,1,425,381.56Z" transform="translate(-195.64 -170.59)"/>
    <path class="cls-6" d="M431.69,371.33a5.35,5.35,0,0,1,5.54,5.36c0,1-.61,1.37-1.71,1.37H429a3,3,0,0,0,3.19,2.56,4.72,4.72,0,0,0,2.24-.61,1,1,0,0,1,.55-.14,1.14,1.14,0,0,1,.53,2.15,7.36,7.36,0,0,1-3.65.92,5.81,5.81,0,1,1-.18-11.61ZM429,376.09h5.45a2.57,2.57,0,0,0-2.73-2.45A2.65,2.65,0,0,0,429,376.09Z" transform="translate(-195.64 -170.59)"/>
    <path class="cls-6" d="M456,374.67v6.69a1.47,1.47,0,0,1-2.93,0v-5.68c0-1-.46-1.77-1.65-1.77a2.94,2.94,0,0,0-2.29,1.29v6.16a1.47,1.47,0,0,1-2.93,0v-5.68c0-1-.46-1.77-1.65-1.77a3,3,0,0,0-2.29,1.31v6.14a1.46,1.46,0,1,1-2.91,0v-8.45a1.46,1.46,0,0,1,1.45-1.49,1.48,1.48,0,0,1,1.48,1.49V373a4.91,4.91,0,0,1,3.6-1.69,2.92,2.92,0,0,1,3.07,2,4.69,4.69,0,0,1,3.8-2C454.78,371.33,456,372.4,456,374.67Z" transform="translate(-195.64 -170.59)"/>
  </g>
  <g>
    <path d="M491.13,380.36v-8.08a.55.55,0,0,1,.61-.6h3.08a2.77,2.77,0,1,1,0,5.54h-2.54v3.14a.58.58,0,0,1-.57.56A.57.57,0,0,1,491.13,380.36Zm3.56-7.66h-2.41v3.5h2.41a1.75,1.75,0,1,0,0-3.5Z" transform="translate(-195.64 -170.59)"/>
    <path d="M499.22,380.36v-8.08a.55.55,0,0,1,.6-.6h3.09a2.77,2.77,0,1,1,0,5.54h-2.55v3.14a.57.57,0,0,1-.57.56A.56.56,0,0,1,499.22,380.36Zm3.55-7.66h-2.41v3.5h2.41a1.75,1.75,0,1,0,0-3.5Z" transform="translate(-195.64 -170.59)"/>
    <path d="M506.9,379.49a.56.56,0,0,1,.55-.57.49.49,0,0,1,.34.13,3.82,3.82,0,0,0,2.53,1c1.64,0,2.16-.88,2.16-1.58,0-1.1-1.12-1.41-2.33-1.74-1.47-.38-3.11-.8-3.11-2.6,0-1.52,1.35-2.55,3.24-2.55a4.38,4.38,0,0,1,2.83.95.5.5,0,0,1,.24.44.56.56,0,0,1-.54.55.49.49,0,0,1-.33-.12,3.54,3.54,0,0,0-2.29-.8c-1.18,0-2,.59-2,1.46s1.06,1.2,2.24,1.51c1.5.4,3.21.87,3.21,2.8,0,1.34-.91,2.7-3.39,2.7a4.64,4.64,0,0,1-3.17-1.11A.58.58,0,0,1,506.9,379.49Z" transform="translate(-195.64 -170.59)"/>
  </g>
  <g>
    <path d="M377.78,489.49v-7.22a.5.5,0,0,1,.55-.55h4.43a.46.46,0,1,1,0,.92h-3.95v2.65h3.87a.46.46,0,1,1,0,.91h-3.87v3.29a.52.52,0,0,1-1,0Z" transform="translate(-195.64 -170.59)"/>
    <path d="M384.36,482.17a.63.63,0,1,1,1.25,0,.63.63,0,0,1-1.25,0Zm.16,7.37V484.4a.47.47,0,0,1,.93,0v5.14a.47.47,0,0,1-.93,0Z" transform="translate(-195.64 -170.59)"/>
    <path d="M387.33,489.4v-7.13a.5.5,0,0,1,.55-.55H391a2.08,2.08,0,0,1,2.31,2.1,1.87,1.87,0,0,1-1.44,1.89,2,2,0,0,1,1.6,2,2.15,2.15,0,0,1-2.38,2.22h-3.2A.5.5,0,0,1,387.33,489.4Zm3.49-4.11a1.33,1.33,0,1,0,0-2.65h-2.46v2.65Zm.05,3.75a1.37,1.37,0,0,0,1.53-1.42,1.4,1.4,0,0,0-1.53-1.42h-2.51V489Z" transform="translate(-195.64 -170.59)"/>
    <path d="M400,484.4v5.14a.47.47,0,0,1-.93,0v-.42a2.9,2.9,0,0,1-2.12,1,1.67,1.67,0,0,1-1.89-1.9v-3.8a.46.46,0,0,1,.92,0v3.51c0,1,.53,1.36,1.33,1.36a2.26,2.26,0,0,0,1.76-.9v-4a.47.47,0,0,1,.93,0Z" transform="translate(-195.64 -170.59)"/>
  </g>
  <g>
    <path d="M302.81,538.57a4.1,4.1,0,0,1,4.19-4.25,3.73,3.73,0,0,1,2.82,1.19.46.46,0,0,1,.12.34.49.49,0,0,1-.48.48.47.47,0,0,1-.37-.16,2.79,2.79,0,0,0-2.09-.94,3.35,3.35,0,0,0,0,6.68,2.73,2.73,0,0,0,2.09-.93.47.47,0,0,1,.37-.16.48.48,0,0,1,.48.48.45.45,0,0,1-.12.33,3.68,3.68,0,0,1-2.82,1.2A4.11,4.11,0,0,1,302.81,538.57Z" transform="translate(-195.64 -170.59)"/>
    <path d="M310.86,539.69a3,3,0,1,1,2.95,3.14A2.92,2.92,0,0,1,310.86,539.69Zm4.92,0a2,2,0,1,0-2,2.31A2.07,2.07,0,0,0,315.78,539.69Z" transform="translate(-195.64 -170.59)"/>
    <path d="M323.2,538.5v3.77a.46.46,0,1,1-.92,0v-3.49c0-1-.53-1.38-1.34-1.38a2.29,2.29,0,0,0-1.76.93v3.94a.46.46,0,1,1-.92,0v-5.14a.46.46,0,1,1,.92,0v.47a2.91,2.91,0,0,1,2.12-1A1.69,1.69,0,0,1,323.2,538.5Z" transform="translate(-195.64 -170.59)"/>
    <path d="M327.62,542.28a.34.34,0,0,1-.23.35,1.63,1.63,0,0,1-.84.2,1.22,1.22,0,0,1-1.32-1.4v-3.89h-.63a.41.41,0,0,1,0-.82h.63V535.5a.47.47,0,0,1,.93,0v1.22H327a.41.41,0,1,1,0,.82h-.85v3.7c0,.44.19.76.6.76s.35-.11.47-.11A.37.37,0,0,1,327.62,542.28Z" transform="translate(-195.64 -170.59)"/>
    <path d="M331.64,537.07c0,.22-.18.42-.51.45a2.2,2.2,0,0,0-1.54.94v3.81a.46.46,0,1,1-.92,0v-5.14a.46.46,0,1,1,.92,0v.55a2.6,2.6,0,0,1,1.33-1,1,1,0,0,1,.3-.07A.42.42,0,0,1,331.64,537.07Z" transform="translate(-195.64 -170.59)"/>
    <path d="M332.39,539.69a3,3,0,1,1,2.95,3.14A2.92,2.92,0,0,1,332.39,539.69Zm4.92,0a2,2,0,1,0-2,2.31A2.07,2.07,0,0,0,337.31,539.69Z" transform="translate(-195.64 -170.59)"/>
    <path d="M339.78,542.27v-7.41a.47.47,0,0,1,.93,0v7.41a.47.47,0,0,1-.93,0Z" transform="translate(-195.64 -170.59)"/>
    <path d="M342.56,542.27v-7.41a.45.45,0,0,1,.46-.45.46.46,0,0,1,.46.45v7.41a.47.47,0,0,1-.46.46A.46.46,0,0,1,342.56,542.27Z" transform="translate(-195.64 -170.59)"/>
    <path d="M345.17,534.9a.62.62,0,1,1,1.24,0,.62.62,0,0,1-1.24,0Zm.16,7.37v-5.14a.46.46,0,1,1,.92,0v5.14a.46.46,0,1,1-.92,0Z" transform="translate(-195.64 -170.59)"/>
    <path d="M353,538.5v3.77a.46.46,0,0,1-.92,0v-3.49c0-1-.53-1.38-1.33-1.38a2.29,2.29,0,0,0-1.77.93v3.94a.46.46,0,1,1-.92,0v-5.14a.46.46,0,1,1,.92,0v.47a2.91,2.91,0,0,1,2.12-1A1.69,1.69,0,0,1,353,538.5Z" transform="translate(-195.64 -170.59)"/>
    <path d="M360.12,537.13v5.37c0,2-1.38,2.59-2.84,2.59a3.11,3.11,0,0,1-2.16-.67.47.47,0,0,1-.16-.32.41.41,0,0,1,.41-.41.36.36,0,0,1,.23.09,2.43,2.43,0,0,0,1.68.55,1.7,1.7,0,0,0,1.91-1.79v-.84a2.49,2.49,0,0,1-2,1c-1.55,0-2.65-1.16-2.65-3.08s1.09-3.09,2.65-3.09a2.44,2.44,0,0,1,2,1v-.5a.47.47,0,0,1,.93,0Zm-.93,3.83v-2.6a2.18,2.18,0,0,0-1.77-1c-1.2,0-1.91,1-1.91,2.27s.71,2.27,1.91,2.27A2.19,2.19,0,0,0,359.19,541Z" transform="translate(-195.64 -170.59)"/>
  </g>
  <g>
    <path d="M225.5,454.86v-7.14a.5.5,0,0,1,.54-.55h4.44a.46.46,0,1,1,0,.92h-3.95v2.65h3.87a.46.46,0,1,1,0,.91h-3.87v2.84h3.95a.46.46,0,1,1,0,.91H226A.49.49,0,0,1,225.5,454.86Z" transform="translate(-195.64 -170.59)"/>
    <path d="M232.32,447.62a.62.62,0,1,1,.61.62A.62.62,0,0,1,232.32,447.62Zm.16,7.37v-5.14a.46.46,0,0,1,.92,0V455a.46.46,0,1,1-.92,0Z" transform="translate(-195.64 -170.59)"/>
    <path d="M240.19,451.22V455a.46.46,0,1,1-.92,0V451.5c0-1.05-.53-1.38-1.33-1.38a2.32,2.32,0,0,0-1.77.93V455a.46.46,0,1,1-.92,0v-5.14a.46.46,0,1,1,.92,0v.47a2.91,2.91,0,0,1,2.12-1A1.69,1.69,0,0,1,240.19,451.22Z" transform="translate(-195.64 -170.59)"/>
    <path d="M247,455a.46.46,0,0,1-.46.47.44.44,0,0,1-.35-.15L244,452.74l-1,.93V455a.46.46,0,1,1-.92,0v-7.41a.46.46,0,0,1,.92,0v5l3.22-3.12a.43.43,0,0,1,.59.62l-2.13,2.05,2.22,2.5A.53.53,0,0,1,247,455Z" transform="translate(-195.64 -170.59)"/>
    <path d="M253,451.31V455a.47.47,0,0,1-.93,0v-.27a2.51,2.51,0,0,1-2,.83,2,2,0,0,1-2.08-2,2,2,0,0,1,2.08-2,2.46,2.46,0,0,1,2,.82v-1.08c0-.8-.64-1.25-1.5-1.25a2.19,2.19,0,0,0-1.55.59.46.46,0,0,1-.25.07.38.38,0,0,1-.38-.38.4.4,0,0,1,.16-.31,3.06,3.06,0,0,1,2.14-.77C252,449.3,253,449.86,253,451.31Zm-.93,2.83V453a2,2,0,0,0-1.63-.74,1.31,1.31,0,1,0,0,2.6A2,2,0,0,0,252.09,454.14Z" transform="translate(-195.64 -170.59)"/>
    <path d="M259.81,449.85V455a.47.47,0,0,1-.93,0v-.42a2.9,2.9,0,0,1-2.12,1,1.67,1.67,0,0,1-1.89-1.9v-3.8a.46.46,0,0,1,.46-.46.47.47,0,0,1,.46.46v3.51c0,1.05.53,1.36,1.33,1.36a2.26,2.26,0,0,0,1.76-.9v-4a.47.47,0,0,1,.93,0Z" transform="translate(-195.64 -170.59)"/>
    <path d="M264.5,447.5a.34.34,0,0,1-.37.37c-.08,0-.21-.05-.36-.05-.6,0-.93.42-.93,1.17v.45h.85a.41.41,0,0,1,0,.82h-.85V455a.47.47,0,0,1-.93,0v-4.73h-.63a.41.41,0,0,1,0-.82h.63V449a1.7,1.7,0,0,1,1.73-1.94,2.2,2.2,0,0,1,.58.08A.37.37,0,0,1,264.5,447.5Z" transform="translate(-195.64 -170.59)"/>
  </g>
  <g>
    <path d="M267.47,380l-1.69-6.15L264.1,380a.69.69,0,0,1-.69.53.71.71,0,0,1-.69-.52l-2-7.1a.88.88,0,0,1,0-.16.54.54,0,0,1,1.06-.13l1.73,6.49,1.79-6.51a.55.55,0,0,1,1.05,0l1.79,6.51,1.72-6.49a.55.55,0,0,1,.52-.41.54.54,0,0,1,.54.54.88.88,0,0,1,0,.16l-2,7.1a.7.7,0,0,1-.68.52A.69.69,0,0,1,267.47,380Z" transform="translate(-195.64 -170.59)"/>
    <path d="M276.3,376.4v3.69a.46.46,0,0,1-.92,0v-.28a2.5,2.5,0,0,1-2,.83,2,2,0,0,1-2.09-2,2,2,0,0,1,2.09-2,2.5,2.5,0,0,1,2,.81v-1.07c0-.8-.64-1.26-1.51-1.26a2.19,2.19,0,0,0-1.55.59.46.46,0,0,1-.25.08.39.39,0,0,1-.38-.39.41.41,0,0,1,.16-.3,3.11,3.11,0,0,1,2.15-.78C275.26,374.39,276.3,375,276.3,376.4Zm-.92,2.84v-1.13a2,2,0,0,0-1.64-.74,1.31,1.31,0,1,0,0,2.6A2,2,0,0,0,275.38,379.24Z" transform="translate(-195.64 -170.59)"/>
    <path d="M283.82,380l-1.69-6.15L280.45,380a.69.69,0,0,1-.69.53.71.71,0,0,1-.69-.52l-2-7.1a.88.88,0,0,1,0-.16.54.54,0,0,1,.54-.54.53.53,0,0,1,.52.41l1.74,6.49,1.78-6.51a.54.54,0,0,1,.53-.39.53.53,0,0,1,.52.39l1.79,6.51,1.73-6.49a.53.53,0,0,1,.51-.41.55.55,0,0,1,.55.54.9.9,0,0,1,0,.16l-2,7.1a.71.71,0,0,1-1.37,0Z" transform="translate(-195.64 -170.59)"/>
    <path d="M288.34,372.71a.62.62,0,1,1,1.24,0,.62.62,0,0,1-1.24,0Zm.16,7.38v-5.15a.46.46,0,0,1,.92,0v5.15a.46.46,0,0,1-.92,0Z" transform="translate(-195.64 -170.59)"/>
  </g>
  <g>
    <path d="M211.48,297.76a4.1,4.1,0,0,1,4.19-4.25,3.75,3.75,0,0,1,2.83,1.19.5.5,0,0,1,.12.34.49.49,0,0,1-.48.48.47.47,0,0,1-.37-.16,2.83,2.83,0,0,0-2.1-.94,3.35,3.35,0,0,0,0,6.68,2.81,2.81,0,0,0,2.1-.93.48.48,0,0,1,.85.32.5.5,0,0,1-.12.33,3.7,3.7,0,0,1-2.83,1.19A4.1,4.1,0,0,1,211.48,297.76Z" transform="translate(-195.64 -170.59)"/>
    <path d="M219.54,298.88a3,3,0,1,1,3,3.13A2.92,2.92,0,0,1,219.54,298.88Zm4.92,0a2,2,0,1,0-4,0,2,2,0,1,0,4,0Z" transform="translate(-195.64 -170.59)"/>
    <path d="M235.05,297.56v3.9a.48.48,0,0,1-.47.46.47.47,0,0,1-.46-.46v-3.64c0-.75-.33-1.23-1.1-1.23a2.06,2.06,0,0,0-1.57.91v4a.47.47,0,0,1-.46.46.47.47,0,0,1-.47-.46v-3.64c0-.75-.32-1.23-1.1-1.23a2.07,2.07,0,0,0-1.56.92v3.95a.47.47,0,0,1-.93,0v-5.14a.47.47,0,0,1,.93,0v.45a2.55,2.55,0,0,1,1.92-1,1.53,1.53,0,0,1,1.6,1.11,2.53,2.53,0,0,1,2-1.11C234.47,295.76,235.05,296.37,235.05,297.56Z" transform="translate(-195.64 -170.59)"/>
    <path d="M245,297.56v3.9a.47.47,0,0,1-.47.46.46.46,0,0,1-.45-.46v-3.64c0-.75-.34-1.23-1.1-1.23a2.08,2.08,0,0,0-1.58.91v4a.46.46,0,0,1-.45.46.47.47,0,0,1-.47-.46v-3.64c0-.75-.32-1.23-1.1-1.23a2.09,2.09,0,0,0-1.57.92v3.95a.46.46,0,1,1-.92,0v-5.14a.46.46,0,1,1,.92,0v.45a2.59,2.59,0,0,1,1.93-1,1.53,1.53,0,0,1,1.6,1.11,2.5,2.5,0,0,1,2-1.11C244.42,295.76,245,296.37,245,297.56Z" transform="translate(-195.64 -170.59)"/>
    <path d="M249.43,295.76a2.82,2.82,0,0,1,2.86,3c0,.3-.19.47-.54.47h-4.28a2.11,2.11,0,0,0,2.15,2.06,2.57,2.57,0,0,0,1.6-.57.5.5,0,0,1,.21-.05.37.37,0,0,1,.22.68,3.34,3.34,0,0,1-2.12.7,3.13,3.13,0,0,1-.1-6.25Zm-2,2.75h3.91a1.92,1.92,0,0,0-2-2A2,2,0,0,0,247.47,298.51Z" transform="translate(-195.64 -170.59)"/>
    <path d="M256.75,296.26a.49.49,0,0,1-.5.45,2.2,2.2,0,0,0-1.54.94v3.81a.47.47,0,0,1-.93,0v-5.14a.47.47,0,0,1,.93,0v.55a2.64,2.64,0,0,1,1.33-1,1.25,1.25,0,0,1,.29-.06A.41.41,0,0,1,256.75,296.26Z" transform="translate(-195.64 -170.59)"/>
    <path d="M260.47,295.76a2.6,2.6,0,0,1,1.92.74.49.49,0,0,1,.13.31.41.41,0,0,1-.42.42.39.39,0,0,1-.27-.11,1.73,1.73,0,0,0-1.31-.53,2.31,2.31,0,0,0,0,4.6,1.7,1.7,0,0,0,1.3-.53.36.36,0,0,1,.28-.11.41.41,0,0,1,.42.42.42.42,0,0,1-.13.3,2.56,2.56,0,0,1-1.92.74,3.13,3.13,0,0,1,0-6.25Z" transform="translate(-195.64 -170.59)"/>
    <path d="M266.54,295.76a2.82,2.82,0,0,1,2.86,3c0,.3-.2.47-.55.47h-4.27a2.09,2.09,0,0,0,2.14,2.06,2.55,2.55,0,0,0,1.6-.57.54.54,0,0,1,.21-.05.38.38,0,0,1,.39.37.4.4,0,0,1-.16.31,3.39,3.39,0,0,1-2.13.7,3.13,3.13,0,0,1-.09-6.25Zm-2,2.75h3.9a1.92,1.92,0,0,0-2-2A2,2,0,0,0,264.58,298.51Z" transform="translate(-195.64 -170.59)"/>
  </g>
  <g>
    <path d="M376.64,272.39a4.11,4.11,0,0,1,4.19-4.26,3.7,3.7,0,0,1,2.82,1.2.46.46,0,0,1,.13.33.49.49,0,0,1-.48.48.45.45,0,0,1-.37-.16,2.86,2.86,0,0,0-2.1-.93,3.35,3.35,0,0,0,0,6.68,2.78,2.78,0,0,0,2.1-.94.45.45,0,0,1,.37-.16.49.49,0,0,1,.48.48.47.47,0,0,1-.13.34,3.68,3.68,0,0,1-2.82,1.19A4.1,4.1,0,0,1,376.64,272.39Z" transform="translate(-195.64 -170.59)"/>
    <path d="M391.13,276.08a.5.5,0,0,1-.49.46.52.52,0,0,1-.43-.21l-2.15-3.1h-1.81V276a.52.52,0,0,1-.51.5.5.5,0,0,1-.51-.5v-7.23a.49.49,0,0,1,.54-.54h2.76a2.4,2.4,0,0,1,2.58,2.48,2.27,2.27,0,0,1-2,2.37l1.88,2.63A.54.54,0,0,1,391.13,276.08Zm-4.88-3.75h2.16a1.58,1.58,0,1,0,0-3.15h-2.16Z" transform="translate(-195.64 -170.59)"/>
    <path d="M399.75,276v-6.39L397,276.33a.28.28,0,0,1-.28.21.3.3,0,0,1-.29-.21l-2.71-6.68V276a.51.51,0,0,1-1,0v-7a.87.87,0,0,1,.86-.86.84.84,0,0,1,.8.54l2.36,5.81,2.36-5.81a.87.87,0,0,1,1.67.32v7a.51.51,0,0,1-1,0Z" transform="translate(-195.64 -170.59)"/>
  </g>
</svg>
